<mxfile host="app.diagrams.net" agent="Mozilla/5.0 (Windows NT 10.0; Win64; x64) AppleWebKit/537.36 (KHTML, like Gecko) Chrome/136.0.0.0 Safari/537.36" version="27.0.6">
  <diagram name="Trang-1" id="LdBCf2pyWuwxGiQPqAX-">
    <mxGraphModel dx="1426" dy="811" grid="0" gridSize="10" guides="1" tooltips="1" connect="1" arrows="1" fold="1" page="1" pageScale="1" pageWidth="827" pageHeight="1169" math="0" shadow="0">
      <root>
        <mxCell id="0" />
        <mxCell id="1" parent="0" />
        <mxCell id="hw1CNFkAKvMexXQf5nMj-15" value="" style="endArrow=classic;html=1;rounded=0;exitX=0.581;exitY=0.014;exitDx=0;exitDy=0;entryX=0.625;entryY=1.008;entryDx=0;entryDy=0;exitPerimeter=0;entryPerimeter=0;curved=1;" parent="1" source="nDBo9lOLNrNxuRSraMPc-8" target="nDBo9lOLNrNxuRSraMPc-7" edge="1">
          <mxGeometry width="50" height="50" relative="1" as="geometry">
            <mxPoint x="411" y="228" as="sourcePoint" />
            <mxPoint x="411" y="492" as="targetPoint" />
            <Array as="points">
              <mxPoint x="421" y="218" />
            </Array>
          </mxGeometry>
        </mxCell>
        <mxCell id="UW6qlCyuhL41n0ogvyUi-10" value="&lt;div&gt;&lt;span style=&quot;&quot;&gt;Manage user account&lt;/span&gt;&lt;/div&gt;&lt;div&gt;&lt;span style=&quot;&quot;&gt;Manage user profile&amp;nbsp;&lt;/span&gt;&lt;/div&gt;" style="edgeLabel;html=1;align=left;verticalAlign=middle;resizable=0;points=[];" parent="hw1CNFkAKvMexXQf5nMj-15" vertex="1" connectable="0">
          <mxGeometry x="0.6614" relative="1" as="geometry">
            <mxPoint x="-19" y="25" as="offset" />
          </mxGeometry>
        </mxCell>
        <mxCell id="hw1CNFkAKvMexXQf5nMj-26" value="" style="endArrow=classic;html=1;rounded=0;exitX=0.646;exitY=-0.008;exitDx=0;exitDy=0;entryX=0.575;entryY=0.989;entryDx=0;entryDy=0;entryPerimeter=0;exitPerimeter=0;curved=1;" parent="1" source="nDBo9lOLNrNxuRSraMPc-4" target="nDBo9lOLNrNxuRSraMPc-8" edge="1">
          <mxGeometry width="50" height="50" relative="1" as="geometry">
            <mxPoint x="421" y="548" as="sourcePoint" />
            <mxPoint x="471" y="498" as="targetPoint" />
            <Array as="points">
              <mxPoint x="421" y="538" />
            </Array>
          </mxGeometry>
        </mxCell>
        <mxCell id="nDBo9lOLNrNxuRSraMPc-2" value="Guest" style="rounded=0;whiteSpace=wrap;html=1;" parent="1" vertex="1">
          <mxGeometry x="21" y="238" width="80" height="40" as="geometry" />
        </mxCell>
        <mxCell id="nDBo9lOLNrNxuRSraMPc-3" value="Patient" style="rounded=0;whiteSpace=wrap;html=1;" parent="1" vertex="1">
          <mxGeometry x="21" y="518" width="80" height="40" as="geometry" />
        </mxCell>
        <mxCell id="nDBo9lOLNrNxuRSraMPc-4" value="Staff" style="rounded=0;whiteSpace=wrap;html=1;" parent="1" vertex="1">
          <mxGeometry x="321" y="638" width="80" height="40" as="geometry" />
        </mxCell>
        <mxCell id="nDBo9lOLNrNxuRSraMPc-5" value="Doctor" style="rounded=0;whiteSpace=wrap;html=1;" parent="1" vertex="1">
          <mxGeometry x="621" y="518" width="80" height="40" as="geometry" />
        </mxCell>
        <mxCell id="nDBo9lOLNrNxuRSraMPc-6" value="Manager" style="rounded=0;whiteSpace=wrap;html=1;" parent="1" vertex="1">
          <mxGeometry x="621" y="198" width="80" height="40" as="geometry" />
        </mxCell>
        <mxCell id="nDBo9lOLNrNxuRSraMPc-7" value="Admin" style="rounded=0;whiteSpace=wrap;html=1;" parent="1" vertex="1">
          <mxGeometry x="321" y="78" width="80" height="40" as="geometry" />
        </mxCell>
        <mxCell id="nDBo9lOLNrNxuRSraMPc-8" value="HIV Treatment System" style="ellipse;whiteSpace=wrap;html=1;aspect=fixed;" parent="1" vertex="1">
          <mxGeometry x="301" y="318" width="120" height="120" as="geometry" />
        </mxCell>
        <mxCell id="nDBo9lOLNrNxuRSraMPc-17" value="" style="endArrow=classic;html=1;rounded=0;exitX=0;exitY=0.583;exitDx=0;exitDy=0;entryX=0.5;entryY=0;entryDx=0;entryDy=0;exitPerimeter=0;curved=1;" parent="1" source="nDBo9lOLNrNxuRSraMPc-8" target="nDBo9lOLNrNxuRSraMPc-3" edge="1">
          <mxGeometry width="50" height="50" relative="1" as="geometry">
            <mxPoint x="291" y="458" as="sourcePoint" />
            <mxPoint x="141" y="428" as="targetPoint" />
            <Array as="points">
              <mxPoint x="101" y="398" />
            </Array>
          </mxGeometry>
        </mxCell>
        <mxCell id="nDBo9lOLNrNxuRSraMPc-18" value="&lt;span style=&quot;text-align: center;&quot;&gt;View document,&lt;/span&gt;&lt;span style=&quot;color: light-dark(rgb(0, 0, 0), rgb(255, 255, 255)); text-align: center;&quot;&gt;&amp;nbsp;advise&lt;/span&gt;&lt;div&gt;View profile&lt;/div&gt;&lt;div&gt;View test result&lt;div&gt;View clinical protocol&lt;/div&gt;&lt;/div&gt;" style="edgeLabel;html=1;align=left;verticalAlign=middle;resizable=0;points=[];" parent="nDBo9lOLNrNxuRSraMPc-17" vertex="1" connectable="0">
          <mxGeometry x="0.2743" y="-2" relative="1" as="geometry">
            <mxPoint x="-9" y="17" as="offset" />
          </mxGeometry>
        </mxCell>
        <mxCell id="nDBo9lOLNrNxuRSraMPc-26" value="" style="endArrow=classic;html=1;rounded=0;entryX=0.5;entryY=1;entryDx=0;entryDy=0;exitX=0.979;exitY=0.331;exitDx=0;exitDy=0;exitPerimeter=0;strokeColor=default;curved=1;" parent="1" source="nDBo9lOLNrNxuRSraMPc-8" target="nDBo9lOLNrNxuRSraMPc-6" edge="1">
          <mxGeometry width="50" height="50" relative="1" as="geometry">
            <mxPoint x="451" y="358" as="sourcePoint" />
            <mxPoint x="561" y="248" as="targetPoint" />
            <Array as="points">
              <mxPoint x="581" y="358" />
            </Array>
          </mxGeometry>
        </mxCell>
        <mxCell id="nDBo9lOLNrNxuRSraMPc-27" value="View dashboard&amp;nbsp;&lt;div&gt;View report&lt;/div&gt;" style="edgeLabel;html=1;align=left;verticalAlign=middle;resizable=0;points=[];labelBorderColor=none;" parent="nDBo9lOLNrNxuRSraMPc-26" vertex="1" connectable="0">
          <mxGeometry x="0.4202" y="-1" relative="1" as="geometry">
            <mxPoint x="-76" y="5" as="offset" />
          </mxGeometry>
        </mxCell>
        <mxCell id="nDBo9lOLNrNxuRSraMPc-31" style="rounded=0;orthogonalLoop=1;jettySize=auto;html=1;entryX=0;entryY=0.5;entryDx=0;entryDy=0;curved=1;" parent="1" source="nDBo9lOLNrNxuRSraMPc-8" target="nDBo9lOLNrNxuRSraMPc-5" edge="1">
          <mxGeometry relative="1" as="geometry">
            <Array as="points">
              <mxPoint x="461" y="538" />
            </Array>
            <mxPoint x="379.5" y="405.4" as="sourcePoint" />
            <mxPoint x="571" y="418" as="targetPoint" />
          </mxGeometry>
        </mxCell>
        <mxCell id="nDBo9lOLNrNxuRSraMPc-32" value="View work schedule&lt;div&gt;View patient profile&lt;/div&gt;&lt;div&gt;&lt;div&gt;View patient test result&lt;/div&gt;&lt;/div&gt;" style="edgeLabel;html=1;align=left;verticalAlign=middle;resizable=0;points=[];" parent="nDBo9lOLNrNxuRSraMPc-31" vertex="1" connectable="0">
          <mxGeometry x="0.014" y="1" relative="1" as="geometry">
            <mxPoint x="-51" y="-34" as="offset" />
          </mxGeometry>
        </mxCell>
        <mxCell id="2mztUhQf5Z68ksP6EujH-1" value="" style="endArrow=classic;html=1;rounded=0;exitX=0.5;exitY=1;exitDx=0;exitDy=0;entryX=0.011;entryY=0.417;entryDx=0;entryDy=0;entryPerimeter=0;curved=1;" parent="1" source="nDBo9lOLNrNxuRSraMPc-2" target="nDBo9lOLNrNxuRSraMPc-8" edge="1">
          <mxGeometry width="50" height="50" relative="1" as="geometry">
            <mxPoint x="295" y="384" as="sourcePoint" />
            <mxPoint x="301" y="328" as="targetPoint" />
            <Array as="points">
              <mxPoint x="141" y="368" />
            </Array>
          </mxGeometry>
        </mxCell>
        <mxCell id="2mztUhQf5Z68ksP6EujH-2" value="Register account" style="edgeLabel;html=1;align=center;verticalAlign=middle;resizable=0;points=[];" parent="2mztUhQf5Z68ksP6EujH-1" vertex="1" connectable="0">
          <mxGeometry x="-0.6054" y="-1" relative="1" as="geometry">
            <mxPoint x="54" y="18" as="offset" />
          </mxGeometry>
        </mxCell>
        <mxCell id="hw1CNFkAKvMexXQf5nMj-14" value="" style="endArrow=classic;html=1;rounded=0;exitX=0.388;exitY=1.008;exitDx=0;exitDy=0;exitPerimeter=0;entryX=0.417;entryY=0.011;entryDx=0;entryDy=0;entryPerimeter=0;curved=1;" parent="1" source="nDBo9lOLNrNxuRSraMPc-7" target="nDBo9lOLNrNxuRSraMPc-8" edge="1">
          <mxGeometry width="50" height="50" relative="1" as="geometry">
            <mxPoint x="391" y="188" as="sourcePoint" />
            <mxPoint x="361" y="258" as="targetPoint" />
            <Array as="points">
              <mxPoint x="301" y="218" />
            </Array>
          </mxGeometry>
        </mxCell>
        <mxCell id="UW6qlCyuhL41n0ogvyUi-9" value="&lt;span style=&quot;color: rgb(0, 0, 0); background-color: rgb(255, 255, 255); float: none; display: inline !important;&quot;&gt;Log in, l&lt;/span&gt;&lt;span style=&quot;color: light-dark(rgb(0, 0, 0), rgb(237, 237, 237)); background-color: light-dark(rgb(255, 255, 255), rgb(18, 18, 18));&quot;&gt;og out&lt;/span&gt;" style="edgeLabel;html=1;align=left;verticalAlign=middle;resizable=0;points=[];" parent="hw1CNFkAKvMexXQf5nMj-14" vertex="1" connectable="0">
          <mxGeometry x="-0.3942" y="-1" relative="1" as="geometry">
            <mxPoint x="-47" as="offset" />
          </mxGeometry>
        </mxCell>
        <mxCell id="hw1CNFkAKvMexXQf5nMj-16" value="" style="endArrow=classic;html=1;rounded=0;entryX=0.917;entryY=0.223;entryDx=0;entryDy=0;exitX=0;exitY=0.5;exitDx=0;exitDy=0;entryPerimeter=0;curved=1;" parent="1" source="nDBo9lOLNrNxuRSraMPc-6" target="nDBo9lOLNrNxuRSraMPc-8" edge="1">
          <mxGeometry width="50" height="50" relative="1" as="geometry">
            <mxPoint x="885" y="228" as="sourcePoint" />
            <mxPoint x="641" y="389" as="targetPoint" />
            <Array as="points">
              <mxPoint x="461" y="218" />
            </Array>
          </mxGeometry>
        </mxCell>
        <mxCell id="hw1CNFkAKvMexXQf5nMj-22" value="&lt;div&gt;&lt;div style=&quot;color: rgb(0, 0, 0);&quot;&gt;&lt;span style=&quot;color: rgb(0, 0, 0); background-color: rgb(255, 255, 255); float: none; display: inline !important;&quot;&gt;Log in, l&lt;/span&gt;&lt;span style=&quot;color: light-dark(rgb(0, 0, 0), rgb(237, 237, 237)); background-color: light-dark(rgb(255, 255, 255), rgb(18, 18, 18));&quot;&gt;og out&lt;/span&gt;&lt;/div&gt;&lt;div style=&quot;color: rgb(0, 0, 0);&quot;&gt;&lt;span&gt;Manage doctor,&lt;span style=&quot;color: light-dark(rgb(0, 0, 0), rgb(255, 255, 255)); background-color: rgb(255, 255, 255);&quot;&gt;&amp;nbsp;staff profile&lt;/span&gt;&lt;/span&gt;&lt;/div&gt;&lt;div style=&quot;color: rgb(0, 0, 0);&quot;&gt;&lt;span style=&quot;background-color: light-dark(#ffffff, var(--ge-dark-color, #121212)); color: light-dark(rgb(0, 0, 0), rgb(255, 255, 255));&quot;&gt;Manage&amp;nbsp;&lt;/span&gt;&lt;span style=&quot;color: light-dark(rgb(0, 0, 0), rgb(255, 255, 255)); background-color: light-dark(#ffffff, var(--ge-dark-color, #121212));&quot;&gt;check-up&amp;nbsp;&lt;/span&gt;&lt;span style=&quot;background-color: light-dark(#ffffff, var(--ge-dark-color, #121212)); color: light-dark(rgb(0, 0, 0), rgb(255, 255, 255));&quot;&gt;schedule&lt;/span&gt;&lt;/div&gt;&lt;div style=&quot;color: rgb(0, 0, 0);&quot;&gt;&lt;div style=&quot;&quot;&gt;&lt;span style=&quot;color: light-dark(rgb(0, 0, 0), rgb(237, 237, 237)); background-color: light-dark(#ffffff, var(--ge-dark-color, #121212));&quot;&gt;Manage&amp;nbsp;&lt;/span&gt;&lt;span style=&quot;color: light-dark(rgb(0, 0, 0), rgb(255, 255, 255));&quot;&gt;advisory schedule&lt;/span&gt;&lt;/div&gt;&lt;div style=&quot;&quot;&gt;&lt;span style=&quot;color: light-dark(rgb(0, 0, 0), rgb(237, 237, 237)); background-color: light-dark(#ffffff, var(--ge-dark-color, #121212));&quot;&gt;Manage&amp;nbsp;&lt;/span&gt;&lt;span style=&quot;color: light-dark(rgb(0, 0, 0), rgb(255, 255, 255)); background-color: light-dark(#ffffff, var(--ge-dark-color, #121212));&quot;&gt;treatment schedule&lt;/span&gt;&lt;/div&gt;&lt;div&gt;&lt;span style=&quot;color: light-dark(rgb(0, 0, 0), rgb(255, 255, 255)); background-color: light-dark(#ffffff, var(--ge-dark-color, #121212));&quot;&gt;&lt;br&gt;&lt;/span&gt;&lt;/div&gt;&lt;/div&gt;&lt;/div&gt;" style="edgeLabel;html=1;align=left;verticalAlign=middle;resizable=0;points=[];" parent="hw1CNFkAKvMexXQf5nMj-16" vertex="1" connectable="0">
          <mxGeometry x="0.4237" y="-1" relative="1" as="geometry">
            <mxPoint x="-7" y="-11" as="offset" />
          </mxGeometry>
        </mxCell>
        <mxCell id="hw1CNFkAKvMexXQf5nMj-24" value="" style="endArrow=classic;html=1;rounded=0;exitX=1;exitY=0.5;exitDx=0;exitDy=0;entryX=0.093;entryY=0.782;entryDx=0;entryDy=0;entryPerimeter=0;curved=1;" parent="1" source="nDBo9lOLNrNxuRSraMPc-3" target="nDBo9lOLNrNxuRSraMPc-8" edge="1">
          <mxGeometry width="50" height="50" relative="1" as="geometry">
            <mxPoint x="221" y="568" as="sourcePoint" />
            <mxPoint x="311" y="438" as="targetPoint" />
            <Array as="points">
              <mxPoint x="261" y="538" />
            </Array>
          </mxGeometry>
        </mxCell>
        <mxCell id="hw1CNFkAKvMexXQf5nMj-28" value="Log in, log out&amp;nbsp; &amp;nbsp; &amp;nbsp; &amp;nbsp; &amp;nbsp;&lt;br&gt;Edit profile&lt;div&gt;&lt;span style=&quot;color: light-dark(rgb(0, 0, 0), rgb(255, 255, 255));&quot;&gt;Choose doctor&amp;nbsp;&lt;/span&gt;&amp;nbsp;&lt;br&gt;&lt;div&gt;&lt;span style=&quot;color: light-dark(rgb(0, 0, 0), rgb(255, 255, 255));&quot;&gt;Book check-up date, time&lt;/span&gt;&lt;/div&gt;&lt;div&gt;&lt;span style=&quot;color: light-dark(rgb(0, 0, 0), rgb(255, 255, 255));&quot;&gt;Book treatment date, time&lt;/span&gt;&lt;/div&gt;&lt;div&gt;Book advisory date, time&lt;/div&gt;&lt;/div&gt;" style="edgeLabel;html=1;align=left;verticalAlign=middle;resizable=0;points=[];" parent="hw1CNFkAKvMexXQf5nMj-24" vertex="1" connectable="0">
          <mxGeometry x="-0.5256" y="-1" relative="1" as="geometry">
            <mxPoint x="-4" y="-31" as="offset" />
          </mxGeometry>
        </mxCell>
        <mxCell id="hw1CNFkAKvMexXQf5nMj-25" value="" style="endArrow=classic;html=1;rounded=0;exitX=0.425;exitY=0.997;exitDx=0;exitDy=0;exitPerimeter=0;entryX=0.392;entryY=0.008;entryDx=0;entryDy=0;entryPerimeter=0;curved=1;" parent="1" source="nDBo9lOLNrNxuRSraMPc-8" target="nDBo9lOLNrNxuRSraMPc-4" edge="1">
          <mxGeometry width="50" height="50" relative="1" as="geometry">
            <mxPoint x="421" y="548" as="sourcePoint" />
            <mxPoint x="471" y="498" as="targetPoint" />
            <Array as="points">
              <mxPoint x="301" y="538" />
            </Array>
          </mxGeometry>
        </mxCell>
        <mxCell id="UW6qlCyuhL41n0ogvyUi-1" value="&lt;div style=&quot;&quot;&gt;&lt;div style=&quot;color: rgb(0, 0, 0);&quot;&gt;&lt;span style=&quot;color: rgb(0, 0, 0); background-color: rgb(255, 255, 255); float: none; display: inline !important;&quot;&gt;Log in, l&lt;/span&gt;&lt;span style=&quot;color: light-dark(rgb(0, 0, 0), rgb(237, 237, 237)); background-color: light-dark(rgb(255, 255, 255), rgb(18, 18, 18));&quot;&gt;og out&lt;/span&gt;&lt;/div&gt;Edit patient profile&lt;div style=&quot;color: rgb(0, 0, 0);&quot;&gt;&lt;span style=&quot;color: light-dark(rgb(0, 0, 0), rgb(237, 237, 237)); background-color: light-dark(#ffffff, var(--ge-dark-color, #121212));&quot;&gt;Upload, edit test result&lt;/span&gt;&lt;/div&gt;&lt;/div&gt;" style="edgeLabel;html=1;align=left;verticalAlign=middle;resizable=0;points=[];" parent="hw1CNFkAKvMexXQf5nMj-25" vertex="1" connectable="0">
          <mxGeometry x="0.5599" relative="1" as="geometry">
            <mxPoint x="48" y="-11" as="offset" />
          </mxGeometry>
        </mxCell>
        <mxCell id="UW6qlCyuhL41n0ogvyUi-13" value="View patient profile&lt;div&gt;&lt;span style=&quot;&quot;&gt;View patient test result&lt;/span&gt;&lt;/div&gt;" style="edgeLabel;html=1;align=left;verticalAlign=middle;resizable=0;points=[];" parent="hw1CNFkAKvMexXQf5nMj-25" vertex="1" connectable="0">
          <mxGeometry x="0.1743" relative="1" as="geometry">
            <mxPoint x="-65" y="28" as="offset" />
          </mxGeometry>
        </mxCell>
        <mxCell id="hw1CNFkAKvMexXQf5nMj-27" value="" style="endArrow=classic;html=1;rounded=0;exitX=0.5;exitY=0;exitDx=0;exitDy=0;entryX=0.965;entryY=0.675;entryDx=0;entryDy=0;entryPerimeter=0;curved=1;" parent="1" source="nDBo9lOLNrNxuRSraMPc-5" target="nDBo9lOLNrNxuRSraMPc-8" edge="1">
          <mxGeometry width="50" height="50" relative="1" as="geometry">
            <mxPoint x="531" y="508" as="sourcePoint" />
            <mxPoint x="581" y="458" as="targetPoint" />
            <Array as="points">
              <mxPoint x="581" y="399" />
            </Array>
          </mxGeometry>
        </mxCell>
        <mxCell id="UW6qlCyuhL41n0ogvyUi-2" value="&lt;div&gt;&lt;span style=&quot;color: rgb(0, 0, 0); background-color: rgb(255, 255, 255); float: none; display: inline !important;&quot;&gt;Log in, l&lt;/span&gt;&lt;span style=&quot;color: light-dark(rgb(0, 0, 0), rgb(237, 237, 237)); background-color: light-dark(rgb(255, 255, 255), rgb(18, 18, 18));&quot;&gt;og out&lt;/span&gt;&lt;/div&gt;&lt;div&gt;&lt;span style=&quot;background-color: light-dark(#ffffff, var(--ge-dark-color, #121212)); color: light-dark(rgb(0, 0, 0), rgb(255, 255, 255));&quot;&gt;Choose, modify c&lt;/span&gt;&lt;span style=&quot;background-color: light-dark(#ffffff, var(--ge-dark-color, #121212)); color: light-dark(rgb(0, 0, 0), rgb(255, 255, 255));&quot;&gt;linical protocol&lt;/span&gt;&lt;/div&gt;&lt;div&gt;&lt;span style=&quot;background-color: light-dark(#ffffff, var(--ge-dark-color, #121212)); color: light-dark(rgb(0, 0, 0), rgb(255, 255, 255));&quot;&gt;Upload, edit&amp;nbsp;&lt;/span&gt;&lt;span style=&quot;color: light-dark(rgb(0, 0, 0), rgb(255, 255, 255));&quot;&gt;c&lt;/span&gt;&lt;span style=&quot;color: light-dark(rgb(0, 0, 0), rgb(255, 255, 255));&quot;&gt;linical protocol&lt;/span&gt;&lt;/div&gt;" style="edgeLabel;html=1;align=left;verticalAlign=middle;resizable=0;points=[];" parent="hw1CNFkAKvMexXQf5nMj-27" vertex="1" connectable="0">
          <mxGeometry x="-0.6475" y="1" relative="1" as="geometry">
            <mxPoint x="-110" y="-25" as="offset" />
          </mxGeometry>
        </mxCell>
        <mxCell id="UW6qlCyuhL41n0ogvyUi-7" value="" style="endArrow=classic;html=1;rounded=0;exitX=0.075;exitY=0.233;exitDx=0;exitDy=0;exitPerimeter=0;entryX=1;entryY=0.5;entryDx=0;entryDy=0;curved=1;" parent="1" source="nDBo9lOLNrNxuRSraMPc-8" target="nDBo9lOLNrNxuRSraMPc-2" edge="1">
          <mxGeometry width="50" height="50" relative="1" as="geometry">
            <mxPoint x="291" y="288" as="sourcePoint" />
            <mxPoint x="291" y="178" as="targetPoint" />
            <Array as="points">
              <mxPoint x="261" y="258" />
            </Array>
          </mxGeometry>
        </mxCell>
        <mxCell id="UW6qlCyuhL41n0ogvyUi-8" value="&amp;nbsp;View document,&lt;span style=&quot;color: light-dark(rgb(0, 0, 0), rgb(255, 255, 255));&quot;&gt;&amp;nbsp;advise&amp;nbsp;&lt;/span&gt;" style="edgeLabel;html=1;align=center;verticalAlign=middle;resizable=0;points=[];" parent="UW6qlCyuhL41n0ogvyUi-7" vertex="1" connectable="0">
          <mxGeometry x="0.5407" relative="1" as="geometry">
            <mxPoint x="60" y="20" as="offset" />
          </mxGeometry>
        </mxCell>
        <mxCell id="UW6qlCyuhL41n0ogvyUi-16" value="Gmail system" style="rounded=0;whiteSpace=wrap;html=1;" parent="1" vertex="1">
          <mxGeometry x="741" y="358" width="80" height="40" as="geometry" />
        </mxCell>
        <mxCell id="UW6qlCyuhL41n0ogvyUi-17" value="" style="endArrow=classic;html=1;rounded=0;entryX=1;entryY=0.426;entryDx=0;entryDy=0;exitX=0;exitY=0.25;exitDx=0;exitDy=0;entryPerimeter=0;curved=1;" parent="1" source="UW6qlCyuhL41n0ogvyUi-16" target="nDBo9lOLNrNxuRSraMPc-8" edge="1">
          <mxGeometry width="50" height="50" relative="1" as="geometry">
            <mxPoint x="661" y="487" as="sourcePoint" />
            <mxPoint x="861" y="358" as="targetPoint" />
            <Array as="points">
              <mxPoint x="581" y="348" />
            </Array>
          </mxGeometry>
        </mxCell>
        <mxCell id="UW6qlCyuhL41n0ogvyUi-19" value="" style="endArrow=classic;html=1;rounded=0;exitX=0.993;exitY=0.574;exitDx=0;exitDy=0;exitPerimeter=0;entryX=0;entryY=0.75;entryDx=0;entryDy=0;curved=1;" parent="1" source="nDBo9lOLNrNxuRSraMPc-8" target="UW6qlCyuhL41n0ogvyUi-16" edge="1">
          <mxGeometry width="50" height="50" relative="1" as="geometry">
            <mxPoint x="900" y="378" as="sourcePoint" />
            <mxPoint x="671" y="378" as="targetPoint" />
            <Array as="points">
              <mxPoint x="581" y="408" />
            </Array>
          </mxGeometry>
        </mxCell>
        <mxCell id="UW6qlCyuhL41n0ogvyUi-21" value="&amp;nbsp;Validate email&amp;nbsp;" style="edgeLabel;html=1;align=left;verticalAlign=middle;resizable=0;points=[];labelBorderColor=none;" parent="1" vertex="1" connectable="0">
          <mxGeometry x="566" y="398" as="geometry" />
        </mxCell>
        <mxCell id="UW6qlCyuhL41n0ogvyUi-22" value="&amp;nbsp;Confirm validate&amp;nbsp;" style="edgeLabel;html=1;align=left;verticalAlign=middle;resizable=0;points=[];labelBorderColor=none;" parent="1" vertex="1" connectable="0">
          <mxGeometry x="561" y="358" as="geometry" />
        </mxCell>
      </root>
    </mxGraphModel>
  </diagram>
</mxfile>
